<?xml version="1.0" encoding="UTF-8"?>
<!DOCTYPE svg PUBLIC "-//W3C//DTD SVG 1.1//EN" "http://www.w3.org/Graphics/SVG/1.1/DTD/svg11.dtd">
<!-- Creator: CorelDRAW -->
<svg xmlns="http://www.w3.org/2000/svg" xml:space="preserve" width="2048px" height="2048px" style="shape-rendering:geometricPrecision; text-rendering:geometricPrecision; image-rendering:optimizeQuality; fill-rule:evenodd; clip-rule:evenodd"
viewBox="0 0 2048 2048"
 xmlns:xlink="http://www.w3.org/1999/xlink">
 <defs>
  <style type="text/css">
   <![CDATA[
    .fil2 {fill:none}
    .fil9 {fill:#006064}
    .fil8 {fill:#0097A7}
    .fil5 {fill:#00BCD4}
    .fil7 {fill:#263238}
    .fil10 {fill:#37474F}
    .fil6 {fill:#424242}
    .fil11 {fill:#B0BEC5}
    .fil4 {fill:#CFB669}
    .fil1 {fill:#F57C00}
    .fil0 {fill:#FFA726}
    .fil3 {fill:#FFECB3}
   ]]>
  </style>
   <clipPath id="id0">
    <path d="M1024 -0.0011811c565.539,0 1024,458.462 1024,1024 0,565.539 -458.462,1024 -1024,1024 -565.539,0 -1024,-458.462 -1024,-1024 0,-565.539 458.462,-1024 1024,-1024z"/>
   </clipPath>
 </defs>
 <g id="Layer_x0020_1">
  <metadata id="CorelCorpID_0Corel-Layer"/>
  <path class="fil0" d="M1024 -0.0011811c565.539,0 1024,458.462 1024,1024 0,565.539 -458.462,1024 -1024,1024 -565.539,0 -1024,-458.462 -1024,-1024 0,-565.539 458.462,-1024 1024,-1024z"/>
  <g style="clip-path:url(#id0)">
   <g id="_451241240">
    <g>
     <polygon id="_3337554721" class="fil1" points="1546.65,523.482 2682.53,1659.36 2684.99,1662.42 2687.38,1665.53 2689.7,1668.7 2691.94,1671.93 2694.1,1675.21 2696.19,1678.54 2698.2,1681.93 2700.13,1685.37 2701.98,1688.87 2703.74,1692.4 2705.42,1695.99 2707.02,1699.62 2708.53,1703.3 2709.95,1707.02 2711.28,1710.79 2712.52,1714.59 2713.67,1718.44 2714.73,1722.32 2715.69,1726.24 2716.56,1730.2 2717.32,1734.19 2718,1738.21 2718.57,1742.26 2719.04,1746.35 2719.4,1750.47 2719.67,1754.61 2719.83,1758.78 2719.88,1762.97 1584,627.09 1583.95,622.895 1583.79,618.726 1583.52,614.584 1583.16,610.469 1582.69,606.382 1582.11,602.327 1581.44,598.304 1580.67,594.313 1579.81,590.358 1578.85,586.438 1577.79,582.554 1576.64,578.71 1575.4,574.906 1574.07,571.141 1572.64,567.42 1571.14,563.742 1569.54,560.109 1567.86,556.522 1566.1,552.983 1564.25,549.492 1562.32,546.051 1560.31,542.663 1558.22,539.326 1556.06,536.044 1553.82,532.817 1551.5,529.647 1549.11,526.535 "/>
     <polygon id="_333754800" class="fil1" points="1584,627.09 2719.88,1762.97 2719.88,2556.79 1584,1420.91 "/>
     <polygon id="_333756312" class="fil1" points="1584,1420.91 2719.88,2556.79 2719.83,2560.99 2719.67,2565.16 2719.4,2569.3 2719.04,2573.41 2718.57,2577.5 2718,2581.56 2717.32,2585.58 2716.56,2589.57 2715.69,2593.52 2714.73,2597.44 2713.67,2601.33 2712.52,2605.17 2711.28,2608.98 2709.95,2612.74 2708.53,2616.46 2707.02,2620.14 2705.42,2623.77 2703.74,2627.36 2701.98,2630.9 2700.13,2634.39 2698.2,2637.83 2696.19,2641.22 2694.1,2644.56 2691.94,2647.84 2689.7,2651.07 2687.38,2654.24 2684.99,2657.35 2682.53,2660.4 2680,2663.39 2677.4,2666.32 2674.73,2669.19 2671.99,2671.99 1536.11,1536.11 1538.85,1533.31 1541.52,1530.44 1544.12,1527.51 1546.65,1524.52 1549.11,1521.47 1551.5,1518.35 1553.82,1515.18 1556.06,1511.96 1558.22,1508.67 1560.31,1505.34 1562.32,1501.95 1564.25,1498.51 1566.1,1495.02 1567.86,1491.48 1569.54,1487.89 1571.14,1484.26 1572.64,1480.58 1574.07,1476.86 1575.4,1473.09 1576.64,1469.29 1577.79,1465.45 1578.85,1461.56 1579.81,1457.64 1580.67,1453.69 1581.44,1449.7 1582.11,1445.67 1582.69,1441.62 1583.16,1437.53 1583.52,1433.42 1583.79,1429.27 1583.95,1425.11 "/>
     <polygon id="_333756792" class="fil1" points="1536.11,1536.11 2671.99,2671.99 2669.19,2674.73 2666.32,2677.4 2663.39,2680 2660.4,2682.53 2657.35,2685 2654.23,2687.39 2651.06,2689.7 2647.84,2691.94 2644.56,2694.11 2641.22,2696.19 2637.83,2698.2 2634.39,2700.13 2630.9,2701.98 2627.36,2703.74 2623.77,2705.42 2620.14,2707.02 2616.46,2708.53 2612.74,2709.95 2608.98,2711.28 2605.17,2712.52 2601.33,2713.67 2597.44,2714.73 2593.52,2715.69 2589.57,2716.56 2585.58,2717.33 2581.55,2718 2577.5,2718.57 2573.41,2719.04 2569.3,2719.41 2565.16,2719.67 2560.99,2719.83 2556.79,2719.88 1420.91,1584 1425.11,1583.95 1429.27,1583.79 1433.42,1583.52 1437.53,1583.16 1441.62,1582.69 1445.67,1582.11 1449.7,1581.44 1453.69,1580.67 1457.64,1579.81 1461.56,1578.85 1465.45,1577.79 1469.29,1576.64 1473.09,1575.4 1476.86,1574.07 1480.58,1572.64 1484.26,1571.14 1487.89,1569.54 1491.48,1567.86 1495.02,1566.1 1498.51,1564.25 1501.95,1562.32 1505.34,1560.31 1508.67,1558.22 1511.96,1556.06 1515.18,1553.82 1518.35,1551.5 1521.47,1549.11 1524.52,1546.65 1527.51,1544.12 1530.44,1541.52 1533.31,1538.85 "/>
     <polygon id="_333756552" class="fil1" points="1420.91,1584 2556.79,2719.88 1762.97,2719.88 627.09,1584 "/>
     <polygon id="_333756984" class="fil1" points="627.09,1584 1762.97,2719.88 1758.78,2719.83 1754.61,2719.67 1750.46,2719.41 1746.35,2719.04 1742.26,2718.57 1738.21,2718 1734.19,2717.33 1730.19,2716.56 1726.24,2715.69 1722.32,2714.73 1718.44,2713.67 1714.59,2712.52 1710.79,2711.28 1707.02,2709.95 1703.3,2708.53 1699.62,2707.02 1695.99,2705.42 1692.4,2703.74 1688.86,2701.98 1685.37,2700.13 1681.93,2698.2 1678.54,2696.19 1675.21,2694.11 1671.92,2691.94 1668.7,2689.7 1665.53,2687.39 1662.42,2685 1659.36,2682.53 523.482,1546.65 526.535,1549.11 529.647,1551.5 532.817,1553.82 536.044,1556.06 539.326,1558.22 542.663,1560.31 546.051,1562.32 549.492,1564.25 552.983,1566.1 556.522,1567.86 560.109,1569.54 563.742,1571.14 567.42,1572.64 571.141,1574.07 574.906,1575.4 578.71,1576.64 582.554,1577.79 586.438,1578.85 590.358,1579.81 594.313,1580.67 598.304,1581.44 602.327,1582.11 606.382,1582.69 610.469,1583.16 614.584,1583.52 618.726,1583.79 622.895,1583.95 "/>
    </g>
    <path id="_451241024" class="fil1" d="M627.09 463.999l793.82 0c44.8748,0 85.6536,18.3425 115.201,47.8902 29.5477,29.5477 47.8902,70.3264 47.8902,115.201l0 793.82c0,44.8748 -18.3425,85.6536 -47.8902,115.201 -29.5477,29.5477 -70.3264,47.8902 -115.201,47.8902l-793.82 0c-44.8748,0 -85.6536,-18.3425 -115.201,-47.8902 -29.5477,-29.5477 -47.8902,-70.3264 -47.8902,-115.201l0 -793.82c0,-44.8748 18.3425,-85.6536 47.8902,-115.201 29.5477,-29.5477 70.3264,-47.8902 115.201,-47.8902z"/>
   </g>
  </g>
  <path class="fil2" d="M1024 -0.0011811c565.539,0 1024,458.462 1024,1024 0,565.539 -458.462,1024 -1024,1024 -565.539,0 -1024,-458.462 -1024,-1024 0,-565.539 458.462,-1024 1024,-1024z"/>
  <path class="fil3" d="M627.09 463.999l793.82 0c44.8748,0 85.6536,18.3425 115.201,47.8902 29.5477,29.5477 47.8902,70.3264 47.8902,115.201l0 793.82c0,44.8748 -18.3425,85.6536 -47.8902,115.201 -29.5477,29.5477 -70.3264,47.8902 -115.201,47.8902l-793.82 0c-44.8748,0 -85.6536,-18.3425 -115.201,-47.8902 -29.5477,-29.5477 -47.8902,-70.3264 -47.8902,-115.201l0 -793.82c0,-44.8748 18.3425,-85.6536 47.8902,-115.201 29.5477,-29.5477 70.3264,-47.8902 115.201,-47.8902z"/>
  <path class="fil4" d="M627.09 545.665l793.82 0c22.4043,0 42.763,9.15827 57.515,23.9103 14.752,14.752 23.9103,35.1107 23.9103,57.515l0 793.82c0,22.4043 -9.15827,42.763 -23.9103,57.515 -14.752,14.752 -35.1107,23.9103 -57.515,23.9103l-793.82 0c-22.4043,0 -42.763,-9.15827 -57.515,-23.9103 -14.752,-14.752 -23.9103,-35.1107 -23.9103,-57.515l0 -793.82c0,-22.4043 9.15827,-42.763 23.9103,-57.515 14.752,-14.752 35.1107,-23.9103 57.515,-23.9103z"/>
  <path class="fil5" d="M1420.91 569l-793.82 0c-15.9638,0 -30.4843,6.53859 -41.0174,17.0728 -10.5343,10.5331 -17.0728,25.0536 -17.0728,41.0174l0 793.82c0,15.9638 6.53859,30.4843 17.0728,41.0174 10.5331,10.5343 25.0536,17.0728 41.0174,17.0728l793.82 0c15.9638,0 30.4843,-6.53859 41.0174,-17.0728 10.5343,-10.5331 17.0728,-25.0536 17.0728,-41.0174l0 -793.82c0,-15.9638 -6.53859,-30.4843 -17.0728,-41.0174 -10.5331,-10.5343 -25.0536,-17.0728 -41.0174,-17.0728z"/>
  <polygon class="fil6" points="1024.04,1024 1024.04,1024 1024.02,1023.98 1030.91,1017.09 1024.05,1024 "/>
  <polygon class="fil6" points="1016.48,1031.52 1016.48,1031.52 1024,1024.04 1023.98,1024.02 "/>
  <polygon class="fil6" points="1024,1024.04 1030.91,1030.91 1024.02,1024.02 "/>
  <polygon class="fil6" points="1023.98,1023.98 1023.96,1024 1016.48,1016.48 1016.48,1016.48 "/>
  <polygon class="fil6" points="1023.96,1024 1023.98,1024.02 1017.09,1030.91 "/>
  <polygon class="fil6" points="1024,1023.96 1024,1023.96 1023.98,1023.98 1017.09,1017.09 1024,1023.95 "/>
  <polygon class="fil6" points="1031.52,1016.48 1024,1023.95 1024,1023.96 1024,1023.96 1024.02,1023.98 1031.52,1016.48 "/>
  <path class="fil7" d="M1035.36 991.883c1.33228,0.477166 2.62559,1.03583 3.87756,1.67008l22.0465 -22.8662c4.33819,-4.50945 11.5134,-4.64882 16.0252,-0.31063 4.50945,4.33937 4.64882,11.5146 0.31063,16.0252l-22.6347 23.4744c1.99252,4.31811 3.10276,9.10158 3.10276,14.1236 0,9.30827 -3.81496,17.7992 -9.98741,24.0142l0.0011811 0.0011811 -0.0448819 0.0448819 -0.00236221 0.00236221 0.0448819 0.0472441c-0.725197,0.725197 -1.48937,1.38898 -2.28307,1.99725 -3.08504,2.58425 -6.61772,4.63465 -10.4563,6.01063l0 27.9969c0,6.2752 -5.08819,11.3634 -11.3634,11.3634 -6.2752,0 -11.3634,-5.08819 -11.3634,-11.3634l0 -27.9981c-1.23543,-0.442914 -2.43898,-0.955513 -3.60591,-1.53425l-128.2 128.612c-4.4126,4.4374 -11.5878,4.45748 -16.024,0.0448819 -4.4374,-4.41142 -4.45748,-11.5878 -0.0448819,-16.024l128.386 -128.799c-2.07638,-4.3937 -3.23859,-9.28111 -3.23859,-14.4154 0,-9.30827 3.81496,-17.7992 9.98741,-24.0142l-0.0011811 -0.0011811 0.0448819 -0.0448819 0.00236221 -0.00236221 -0.0448819 -0.0472441c0.725197,-0.725197 1.48937,-1.38898 2.28307,-1.99725 3.08504,-2.58425 6.61772,-4.63465 10.4563,-6.01063l0 -263.338c0,-6.2752 5.08819,-11.3634 11.3634,-11.3634 6.2752,0 11.3634,5.08819 11.3634,11.3634l0 263.339z"/>
  <polyline class="fil2" points="1024.04,1024 1024.05,1024 1031.52,1031.52 1031.52,1031.52 1024.02,1024.02 "/>
  <polyline class="fil2" points="1024.02,1024.02 1024.04,1024 1024.04,1024 "/>
  <path class="fil8" d="M778.288 1285.78c4.43622,-4.43622 4.43622,-11.6327 0,-16.0689 -4.43622,-4.43622 -11.6327,-4.43622 -16.0689,0l-47.5772 47.5784c-4.43622,4.43504 -4.43622,11.6315 0,16.0677 4.43622,4.43622 11.6327,4.43622 16.0677,0l47.5784 -47.5772z"/>
  <path class="fil8" d="M1285.78 1269.71c-4.43622,-4.43622 -11.6327,-4.43622 -16.0689,0 -4.43622,4.43622 -4.43622,11.6327 0,16.0689l47.5784 47.5772c4.43504,4.43622 11.6315,4.43622 16.0677,0 4.43622,-4.43622 4.43622,-11.6327 0,-16.0677l-47.5772 -47.5784z"/>
  <path class="fil8" d="M730.71 714.642c-4.43504,-4.43622 -11.6315,-4.43622 -16.0677,0 -4.43622,4.43622 -4.43622,11.6327 0,16.0677l47.5772 47.5784c4.43622,4.43622 11.6327,4.43622 16.0689,0 4.43622,-4.43622 4.43622,-11.6327 0,-16.0689l-47.5784 -47.5772z"/>
  <path class="fil9" d="M1382.85 1012.64c-6.27638,0 -11.3658,5.08819 -11.3658,11.3634 0,6.2752 5.08937,11.3634 11.3658,11.3634l67.2827 0c6.27638,0 11.3646,-5.08819 11.3646,-11.3634 0,-6.2752 -5.08819,-11.3634 -11.3646,-11.3634l-67.2827 0z"/>
  <path class="fil9" d="M597.864 1012.64c-6.27638,0 -11.3646,5.08819 -11.3646,11.3634 0,6.2752 5.08819,11.3634 11.3646,11.3634l67.2827 0c6.27638,0 11.3658,-5.08819 11.3658,-11.3634 0,-6.2752 -5.08937,-11.3634 -11.3658,-11.3634l-67.2827 0z"/>
  <path class="fil9" d="M1035.36 1382.85c0,-6.27638 -5.08819,-11.3658 -11.3634,-11.3658 -6.2752,0 -11.3634,5.08937 -11.3634,11.3658l0 67.2827c0,6.27638 5.08819,11.3646 11.3634,11.3646 6.2752,0 11.3634,-5.08819 11.3634,-11.3646l0 -67.2827z"/>
  <path class="fil9" d="M1035.36 597.864c0,-6.27638 -5.08819,-11.3646 -11.3634,-11.3646 -6.2752,0 -11.3634,5.08819 -11.3634,11.3646l0 67.2827c0,6.27638 5.08819,11.3658 11.3634,11.3658 6.2752,0 11.3634,-5.08937 11.3634,-11.3658l0 -67.2827z"/>
  <path class="fil8" d="M1333.36 730.71c4.43622,-4.43504 4.43622,-11.6315 0,-16.0677 -4.43622,-4.43622 -11.6327,-4.43622 -16.0677,0l-47.5784 47.5772c-4.43622,4.43622 -4.43622,11.6327 0,16.0689 4.43622,4.43622 11.6327,4.43622 16.0689,0l47.5772 -47.5784z"/>
  <circle class="fil10" cx="1024.56" cy="1024.55" r="27.1535"/>
  <circle class="fil11" cx="1024.56" cy="1024.55" r="10.4432"/>
 </g>
</svg>
